<?xml version="1.0" encoding="utf-8"?>
<!-- Generator: Adobe Illustrator 16.0.0, SVG Export Plug-In . SVG Version: 6.00 Build 0)  -->
<!DOCTYPE svg PUBLIC "-//W3C//DTD SVG 1.1//EN" "http://www.w3.org/Graphics/SVG/1.1/DTD/svg11.dtd">
<svg version="1.1" id="Layer_1" xmlns="http://www.w3.org/2000/svg" xmlns:xlink="http://www.w3.org/1999/xlink" x="0px" y="0px"
	 width="62.719px" height="98.915px" viewBox="0 0 62.719 98.915" enable-background="new 0 0 62.719 98.915" xml:space="preserve">
<g>
	<g>
		<path d="M58.638,1.447c0.675,11.955,1.895,24.394-0.758,36.192c-1.088,4.838-3.223,9.688-7.565,12.398
			c-5.746,3.585-13.508,1.158-19.262-1.032c-1.812-0.69-2.587,2.212-0.798,2.893c11.987,4.563,24.045,3.917,29.244-9.229
			c4.992-12.624,2.884-28.04,2.14-41.222C61.529-0.477,58.528-0.487,58.638,1.447L58.638,1.447z"/>
	</g>
</g>
<g>
	<g>
		<path d="M33.267,32.219c0.926-12.211,19.642-15.632,28.01-21.396c1.582-1.09,0.084-3.691-1.514-2.591
			c-9.713,6.691-28.412,9.688-29.496,23.987C30.12,34.15,33.121,34.136,33.267,32.219L33.267,32.219z"/>
	</g>
</g>
<g>
	<g>
		<path d="M3.783,81.224C3.2,70.976,2.439,60.684,3.626,50.451c0.223-1.92-2.78-1.898-3,0C-0.561,60.684,0.2,70.976,0.783,81.224
			C0.893,83.147,3.894,83.158,3.783,81.224L3.783,81.224z"/>
	</g>
</g>
<g>
	<g>
		<path d="M29.153,50.451C28.228,62.663,9.512,66.083,1.144,71.848c-1.582,1.089-0.084,3.69,1.514,2.59
			c9.713-6.69,28.412-9.688,29.496-23.987C32.3,48.52,29.299,48.534,29.153,50.451L29.153,50.451z"/>
	</g>
</g>
<g>
	<g>
		<path d="M2.908,74.474c11.582,3.732,37.18,7.012,37.608,22.991c0.052,1.931,3.052,1.936,3,0
			c-0.484-18.117-26.671-21.65-39.81-25.884C1.859,70.987,1.074,73.883,2.908,74.474L2.908,74.474z"/>
	</g>
</g>
</svg>
