<svg width="50" height="52" viewBox="0 0 50 52" fill="none" xmlns="http://www.w3.org/2000/svg">
<path fill-rule="evenodd" clip-rule="evenodd" d="M38.6938 51.9356C28.8207 51.9356 18.9475 51.9356 9.07437 51.9356C9.07209 51.8682 9.06765 51.8006 9.06765 51.7329C9.06727 38.3634 9.06715 24.9938 9.06829 11.6243C9.06829 11.478 9.08654 11.3316 9.09605 11.187C18.9735 11.187 28.8155 11.187 38.6888 11.187C38.6888 11.4427 38.6888 11.6601 38.6888 11.8778C38.6905 25.2304 38.6922 38.583 38.6938 51.9356ZM33.7832 31.6659C27.164 31.6659 20.5722 31.6659 13.9859 31.6659C13.9859 32.6846 13.9859 33.6686 13.9859 34.6412C20.6077 34.6412 27.187 34.6412 33.7832 34.6412C33.7832 33.6333 33.7832 32.6619 33.7832 31.6659ZM13.9694 40.0336C20.6 40.0336 27.1923 40.0336 33.7741 40.0336C33.7741 39.0164 33.7741 38.045 33.7741 37.0606C27.1569 37.0606 20.5762 37.0606 13.9694 37.0606C13.9694 38.0593 13.9694 39.032 13.9694 40.0336ZM33.7832 42.5033C27.1628 42.5033 20.57 42.5033 13.9746 42.5033C13.9746 43.515 13.9746 44.4861 13.9746 45.4545C20.5991 45.4545 27.192 45.4545 33.7832 45.4545C33.7832 44.4456 33.7832 43.4877 33.7832 42.5033ZM23.0899 18.3032C23.0969 18.4116 23.0874 18.4642 23.1048 18.5053C24.3892 21.5527 25.6727 24.6006 26.9736 27.641C27.0253 27.7622 27.2425 27.8795 27.3859 27.8837C28.1797 27.9072 28.9749 27.8772 29.7686 27.9032C30.12 27.9146 30.2971 27.8102 30.4377 27.473C31.6459 24.5767 32.8761 21.6896 34.0976 18.7988C34.1584 18.6547 34.2001 18.5025 34.2693 18.2991C33.2555 18.2991 32.3271 18.2843 31.4 18.3147C31.2577 18.3194 31.0622 18.504 30.9936 18.6527C30.6966 19.2955 30.4388 19.9564 30.1648 20.61C29.7193 21.6734 29.2723 22.7359 28.793 23.8774C28.6879 23.6423 28.6157 23.4925 28.5526 23.3387C27.9195 21.793 27.292 20.2451 26.6498 18.7032C26.5867 18.5515 26.4408 18.3236 26.3283 18.3205C25.2547 18.2914 24.1799 18.3032 23.0899 18.3032ZM23.1202 20.0016C22.9364 19.8013 22.7889 19.6189 22.6197 19.4598C20.9566 17.8949 18.1271 17.6363 15.8979 18.8402C12.9952 20.4083 12.6303 24.8809 15.2388 26.9001C16.7802 28.0934 18.5157 28.3252 20.37 27.9237C21.4767 27.6841 22.3925 27.1257 23.1141 26.1893C22.4275 25.576 21.7664 24.9856 21.1109 24.4004C19.6647 25.6512 18.3337 25.8114 17.397 24.8794C16.5836 24.0702 16.5241 22.3732 17.2742 21.4629C17.6386 21.0208 18.1172 20.7909 18.6729 20.7258C19.683 20.6072 20.4506 21.0786 21.0914 21.8161C21.7844 21.1964 22.4365 20.6131 23.1202 20.0016Z" fill="black"/>
<path fill-rule="evenodd" clip-rule="evenodd" d="M32.6077 2.68597e-10C32.68 1.14411 32.7526 2.28821 32.8271 3.46909C38.5511 4.08615 44.2391 4.69928 50 5.32027C48.4338 19.8622 46.8725 34.3619 45.3063 48.9046C44.0964 48.7745 42.9437 48.6504 41.7381 48.5207C41.7381 35.0438 41.7381 21.6001 41.7381 8.12995C29.8213 8.12995 17.9614 8.12995 6.03623 8.12995C6.03623 20.6762 6.03623 33.2227 6.03623 45.8098C5.03665 45.8815 4.0987 45.9488 3.07719 46.0222C2.05176 31.4524 1.02746 16.9002 0 2.30292C0.648885 2.25043 1.23438 2.19769 1.82076 2.15686C8.32748 1.70297 14.8343 1.25162 21.3411 0.79811C24.7293 0.561783 28.1173 0.322921 31.5051 0.0820302C31.6371 0.0726481 31.7667 0.028272 31.8974 0.000125748C32.1344 -1.03668e-06 32.3711 2.68597e-10 32.6077 2.68597e-10Z" fill="black"/>
</svg>
