<svg width="327" height="327" viewBox="0 0 327 327" fill="none" xmlns="http://www.w3.org/2000/svg">
<path fill-rule="evenodd" clip-rule="evenodd" d="M326.878 153.863C326.878 160.247 326.878 166.632 326.878 173.016C326.616 175.313 326.351 177.608 326.096 179.906C322.184 215.076 308.751 246.1 285.046 272.405C259.878 300.334 228.693 317.768 191.591 324.337C185.442 325.426 179.209 326.043 173.016 326.879C166.631 326.879 160.247 326.879 153.863 326.879C153.042 326.698 152.228 326.411 151.399 326.354C125.832 324.549 101.916 317.237 80.092 303.863C37.75 277.915 11.692 240.504 2.545 191.56C1.4 185.434 0.834 179.201 0 173.017C0 166.632 0 160.248 0 153.864C0.261 151.567 0.525998 149.271 0.781998 146.973C4.694 111.804 18.126 80.779 41.832 54.474C67 26.545 98.184 9.11099 135.287 2.54199C141.436 1.45399 147.669 0.835 153.863 0C160.247 0 166.632 0 173.016 0C173.836 0.18 174.65 0.466994 175.48 0.524994C201.046 2.32899 224.963 9.64199 246.786 23.016C289.129 48.964 315.186 86.375 324.334 135.318C325.477 141.445 326.044 147.68 326.878 153.863ZM138.454 190.833C131.964 184.897 126.025 179.443 120.062 174.015C111.016 165.783 102.164 157.32 92.831 149.426C85.579 143.293 74.266 145.635 69.55 153.625C65.396 160.663 66.998 169.061 73.716 175.187C91.245 191.172 108.793 207.136 126.326 223.117C135 231.022 143.499 230.853 151.851 222.565C185.454 189.218 219.053 155.868 252.648 122.514C253.703 121.466 254.764 120.412 255.716 119.272C262.413 111.262 260.213 99.476 251.092 94.37C244.055 90.432 236.671 91.846 230.056 98.458C200.26 128.24 170.472 158.03 140.702 187.837C139.884 188.654 139.294 189.699 138.454 190.833Z" fill="#1B3D2F"/>
</svg>
