<svg width="50" height="50" viewBox="0 0 50 50" fill="none" xmlns="http://www.w3.org/2000/svg">
<path fill-rule="evenodd" clip-rule="evenodd" d="M50 8.39852C50 19.4662 50 30.5341 50 41.6018C49.9686 41.7091 49.9226 41.8146 49.9081 41.9242C49.4145 45.6715 46.5686 48.8336 42.8782 49.7259C42.4552 49.8282 42.0271 49.9094 41.6015 50.0003C38.5741 50.0003 35.5468 50.0003 32.5193 50.0003C32.4616 49.9718 32.4065 49.9336 32.3457 49.9165C31.468 49.6716 31.2695 49.4336 31.235 48.52C31.2159 48.0162 31.2284 47.5112 31.2237 47.0069C31.2005 44.518 31.2099 42.0281 31.1369 39.5406C31.1042 38.4181 30.7041 37.3782 29.9739 36.4936C29.8575 36.3525 29.7334 36.2172 29.5766 36.0375C29.8568 35.9959 30.0646 35.9627 30.2732 35.9342C31.8896 35.7152 33.4649 35.3642 34.9607 34.6757C37.5001 33.5067 39.2835 31.6815 40.1516 28.9851C40.6754 27.3582 40.9038 25.6989 40.9385 23.9978C40.9901 21.4567 40.2844 19.1913 38.6126 17.2451C38.4975 17.1112 38.4467 16.8237 38.5043 16.6548C39.049 15.0597 39.0239 13.4597 38.5977 11.8516C38.1316 10.0921 37.8642 9.94789 36.0936 10.5133C34.5046 11.0207 33.0358 11.7773 31.6271 12.6661C31.4136 12.8008 31.0721 12.8595 30.8277 12.7995C26.9624 11.8514 23.1006 11.8291 19.2417 12.8095C18.8695 12.904 18.5974 12.8451 18.295 12.6363C16.9738 11.725 15.52 11.0716 14.0024 10.5778C13.4278 10.3909 12.7969 10.3643 12.1877 10.3069C12.0602 10.2948 11.8365 10.4383 11.7904 10.5605C11.0493 12.5266 10.7795 14.5265 11.4843 16.5644C11.594 16.8818 11.5553 17.0881 11.3344 17.3395C10.3401 18.4708 9.68536 19.7802 9.33447 21.2478C8.9535 22.8409 9.00866 24.447 9.19423 26.05C9.41913 27.9931 9.95844 29.8498 11.0691 31.4821C12.6222 33.7647 14.9355 34.8903 17.5242 35.5328C18.451 35.7628 19.4038 35.889 20.3748 36.068C20.2988 36.1656 20.2373 36.2577 20.1629 36.3379C19.5609 36.9868 19.142 37.7526 19.029 38.6163C18.9382 39.3091 18.5705 39.5925 17.9686 39.7252C17.8419 39.7531 17.7192 39.8004 17.5917 39.8248C16.1813 40.0939 14.7857 40.2492 13.4892 39.3936C12.7538 38.9086 12.1694 38.2844 11.7314 37.5289C11.1441 36.5157 10.3462 35.7335 9.30625 35.1936C8.65492 34.8555 7.97265 34.6819 7.23737 34.7679C6.60941 34.8411 6.47743 35.1032 6.8641 35.5831C7.0843 35.8566 7.38845 36.0617 7.65026 36.3027C8.13641 36.75 8.71435 37.1354 9.08078 37.666C9.62037 38.4473 9.98338 39.3485 10.4695 40.1701C10.7879 40.7084 11.1288 41.2596 11.5685 41.6951C12.5988 42.7162 13.9508 42.9967 15.3349 43.0515C16.462 43.0961 17.5939 43.0209 18.7525 42.9982C18.7565 43.0532 18.7724 43.1804 18.7737 43.3076C18.7904 44.9348 18.7888 46.5623 18.8266 48.1889C18.8471 49.0704 18.5457 49.7051 17.6758 50.0003C14.5835 50.0003 11.4909 50.0003 8.39851 50.0003C8.30773 49.9706 8.21879 49.9262 8.12558 49.9133C4.27473 49.382 1.20091 46.6189 0.261104 42.834C0.160055 42.4268 0.0863696 42.0127 0 41.6018C0 30.5341 0 19.4662 0 8.39852C0.0313553 8.29077 0.0769637 8.18487 0.0917862 8.07484C0.596606 4.31577 3.41459 1.18395 7.12136 0.272935C7.54394 0.169035 7.97265 0.0903602 8.39851 0C19.4664 0 30.5341 0 41.6018 0C41.6927 0.029645 41.7815 0.0741126 41.8746 0.0869397C45.7254 0.618269 48.7992 3.38124 49.7393 7.16611C49.8402 7.5733 49.9136 7.98762 50 8.39852Z" fill="black"/>
<path fill-rule="evenodd" clip-rule="evenodd" d="M13.067 39.559C12.8376 39.7475 12.6516 39.9545 12.6075 39.9277C12.3644 39.7802 12.1559 39.5754 11.9355 39.3902C12.0601 39.2679 12.2368 39.0191 12.3001 39.0452C12.5424 39.1454 12.7485 39.3336 13.067 39.559Z" fill="black"/>
<path fill-rule="evenodd" clip-rule="evenodd" d="M16.1535 41.3531C15.9364 41.1215 15.7051 40.9889 15.6906 40.836C15.657 40.4788 15.9902 40.4369 16.232 40.4739C16.4042 40.5001 16.5517 40.6882 16.7102 40.8038C16.5519 40.9601 16.3935 41.1165 16.1535 41.3531Z" fill="black"/>
<path fill-rule="evenodd" clip-rule="evenodd" d="M14.0717 39.9552C14.3257 40.209 14.4986 40.3818 14.6713 40.5545C14.5488 40.6725 14.3813 40.9124 14.3116 40.8866C14.0689 40.7972 13.86 40.6161 13.6382 40.4697C13.7548 40.3312 13.8715 40.1929 14.0717 39.9552Z" fill="black"/>
<path fill-rule="evenodd" clip-rule="evenodd" d="M18.1658 40.0513C18.3685 40.2789 18.4912 40.4166 18.6139 40.5544C18.4027 40.6941 18.2053 40.8832 17.973 40.9487C17.8834 40.9741 17.7146 40.7197 17.5818 40.5927C17.7515 40.4355 17.9211 40.2782 18.1658 40.0513Z" fill="black"/>
<path fill-rule="evenodd" clip-rule="evenodd" d="M11.7236 38.1642C11.5293 38.3271 11.3343 38.5124 11.3199 38.4994C11.1214 38.3186 10.939 38.1166 10.7836 37.898C10.7708 37.8799 11.0513 37.5983 11.0781 37.6159C11.2884 37.7559 11.4702 37.9386 11.7236 38.1642Z" fill="black"/>
<path fill-rule="evenodd" clip-rule="evenodd" d="M10.7058 36.8333C10.4775 36.9622 10.2969 37.1033 10.2657 37.0755C10.0961 36.9254 9.96339 36.7337 9.81787 36.5561C9.91051 36.4817 10.052 36.3251 10.0878 36.3462C10.2788 36.4601 10.4436 36.6181 10.7058 36.8333Z" fill="black"/>
<path fill-rule="evenodd" clip-rule="evenodd" d="M8.85755 35.501C9.0491 35.5609 9.24379 35.6129 9.42707 35.6921C9.44517 35.7 9.39173 35.873 9.37163 35.9692C9.17252 35.9136 8.97328 35.8582 8.77417 35.8026C8.80196 35.7021 8.82976 35.6016 8.85755 35.501Z" fill="black"/>
</svg>
