<svg width="385" height="385" viewBox="0 0 385 385" fill="none" xmlns="http://www.w3.org/2000/svg">
<path fill-rule="evenodd" clip-rule="evenodd" d="M338.208 384.592C241.22 384.592 144.232 384.592 47.244 384.592C46.539 384.369 45.848 384.071 45.127 383.936C23.32 379.859 9.219 367.128 2.622 346.026C1.814 343.44 1.365 340.744 0.75 338.098C0.75 241.11 0.75 144.122 0.75 47.1341C0.996 46.1931 1.298 45.2631 1.478 44.3101C4.811 26.6771 14.422 13.6481 30.581 5.90013C35.781 3.40713 41.67 2.35314 47.244 0.640137C144.232 0.640137 241.22 0.640137 338.208 0.640137C338.914 0.860137 339.607 1.15514 340.33 1.28914C362.127 5.36014 376.227 18.0731 382.805 39.1781C383.615 41.7751 384.078 44.4791 384.702 47.1341C384.702 144.122 384.702 241.11 384.702 338.098C384.452 339.05 384.155 339.994 383.959 340.956C379.664 362.001 367.361 375.905 346.874 382.454C344.047 383.358 341.1 383.889 338.208 384.592ZM169.104 247.487C168.194 247.328 166.518 247.034 164.841 246.743C163.119 246.445 161.387 246.197 159.677 245.846C139.644 241.719 124.609 231.682 118.912 210.903C117.764 206.712 117.063 202.356 116.584 198.03C115.014 183.841 117.398 170.672 126.964 159.405C127.719 158.515 127.95 156.646 127.62 155.455C125.27 146.992 125.872 138.701 128.214 130.332C129.199 126.809 131.013 125.91 134.42 126.34C143.858 127.533 151.862 132.044 159.887 136.681C161.502 137.614 163.883 138.146 165.655 137.741C182.605 133.859 199.599 133.413 216.544 137.258C221.071 138.285 224.439 137.629 228.277 135.182C235.451 130.609 243.108 126.93 251.853 126.279C254.312 126.096 256.084 126.674 256.421 129.355C257.224 135.751 259.369 142.397 258.332 148.494C257.14 155.504 258.752 160.398 262.517 166.047C270.346 177.798 269.844 191.18 267.651 204.458C264.548 223.247 254.464 236.607 236.081 242.746C229.28 245.017 222.15 246.304 215.272 248.013C221.995 259.291 222.251 260.272 222.185 274.814C222.147 283.186 222.077 291.558 222.075 299.929C222.073 306.281 225.467 308.732 231.57 306.794C233.827 306.078 236.048 305.236 238.251 304.366C301.548 279.37 330.358 206.816 301.345 145.502C274.127 87.9841 203.304 61.4771 144.856 87.6572C101.536 107.062 76.547 140.834 73.2 188.365C70.302 229.519 86.863 263.017 119.174 288.596C129.432 296.717 140.933 302.706 153.368 306.828C158.304 308.465 162.474 306.705 162.669 302.56C162.989 295.728 162.756 288.87 162.756 281.934C159.167 282.284 155.962 282.72 152.743 282.89C138.398 283.646 126.485 277.404 121.485 264.05C118.987 257.381 114.579 252.008 108.459 248.039C106.813 246.971 105.908 244.76 104.664 243.074C106.876 242.566 109.084 242.04 111.305 241.573C111.638 241.504 112.03 241.72 112.397 241.799C119.9 243.389 124.791 248.303 128.843 254.445C136.399 265.9 148.252 269.47 160.883 264.18C161.81 263.791 162.881 263.013 163.25 262.147C165.305 257.314 167.166 252.398 169.104 247.487Z" fill="black"/>
</svg>
