<svg width="50" height="50" viewBox="0 0 50 50" fill="none" xmlns="http://www.w3.org/2000/svg">
<path fill-rule="evenodd" clip-rule="evenodd" d="M0 37.8745C0 29.2844 0 20.6943 0 12.1042C0.0316312 11.9485 0.0766373 11.7943 0.0928434 11.637C0.614465 6.58788 4.40738 2.01717 9.30035 0.596013C10.2155 0.330174 11.1686 0.195254 12.1043 0C20.6944 0 29.2845 0 37.8746 0C38 0.0290929 38.124 0.0717567 38.2509 0.0853269C44.8021 0.786387 49.9251 6.35787 49.9643 12.9495C50.0118 20.9525 50.0113 28.9563 49.9662 36.9593C49.9258 44.1025 44.0973 49.9276 36.9566 49.9664C28.9862 50.0098 21.015 50.0006 13.0444 49.9685C7.42278 49.9458 2.44566 46.2979 0.691298 40.9502C0.365223 39.9563 0.225616 38.9014 0 37.8745ZM41.1934 25.0033C41.1934 22.5795 41.1963 20.1556 41.1927 17.7318C41.1851 12.6418 37.3265 8.79054 32.2262 8.78624C27.3949 8.78224 22.5636 8.78146 17.7323 8.78644C12.6437 8.79171 8.78976 12.6551 8.78605 17.752C8.78253 22.5833 8.78195 27.4146 8.78624 32.2458C8.79064 37.3134 12.6467 41.1844 17.7037 41.1919C22.5675 41.199 27.4314 41.2 32.2951 41.1915C37.3227 41.1828 41.1825 37.3096 41.1925 32.2745C41.1973 29.8508 41.1934 27.4271 41.1934 25.0033Z" fill="black"/>
<path fill-rule="evenodd" clip-rule="evenodd" d="M38.2647 24.9878C38.2647 27.4109 38.2676 29.834 38.264 32.2571C38.259 35.7029 35.6992 38.261 32.2473 38.2639C27.401 38.268 22.5548 38.2687 17.7086 38.2636C14.2896 38.2601 11.7178 35.6934 11.7146 32.2835C11.7104 27.421 11.7104 22.5585 11.7146 17.696C11.7177 14.2842 14.2886 11.718 17.7065 11.7149C22.569 11.7105 27.4316 11.7098 32.294 11.7151C35.6835 11.7188 38.2555 14.2868 38.2636 17.6695C38.2693 20.1089 38.2646 22.5483 38.2647 24.9878ZM17.6684 24.9955C17.6708 29.0258 20.9642 32.3135 24.9959 32.31C29.0275 32.3065 32.3126 29.015 32.3098 24.9818C32.307 20.9493 29.0172 17.6661 24.982 17.6686C20.9497 17.6711 17.6662 20.9606 17.6684 24.9955ZM33.3776 18.0569C34.1677 18.0604 34.8359 17.4033 34.8463 16.6124C34.8567 15.8217 34.2056 15.1486 33.4142 15.1316C32.6051 15.1143 31.9181 15.7902 31.9216 16.6C31.925 17.3914 32.5867 18.0535 33.3776 18.0569Z" fill="black"/>
<path fill-rule="evenodd" clip-rule="evenodd" d="M29.3803 25.0054C29.373 27.4329 27.382 29.3985 24.9487 29.3804C22.5459 29.3627 20.5913 27.3823 20.5982 24.9725C20.6051 22.5465 22.5972 20.5805 25.0302 20.5982C27.4361 20.6156 29.3876 22.5928 29.3803 25.0054Z" fill="black"/>
</svg>
