<svg width="138" height="138" viewBox="0 0 138 138" fill="none" xmlns="http://www.w3.org/2000/svg">
<path fill-rule="evenodd" clip-rule="evenodd" d="M0.0106347 68.5176C0.0106347 57.2756 -0.0173697 46.0296 0.0186303 34.7866C0.0636303 20.0706 8.54663 7.5706 22.0006 2.3206C26.0816 0.7306 30.3336 0.0165839 34.7036 0.0165839C57.2856 0.00858385 79.8726 -0.0204205 102.455 0.0245795C120.152 0.0605795 134.247 12.3056 136.827 29.8246C137.079 31.5046 137.143 33.2206 137.143 34.9206C137.167 57.3606 137.184 79.8016 137.152 102.238C137.128 118.726 126.53 132.44 110.845 136.148C108.077 136.797 105.164 137.105 102.324 137.122C79.8306 137.194 57.3446 137.186 34.8606 137.154C17.8396 137.13 3.97664 125.867 0.690643 109.354C0.207643 106.936 0.0536427 104.428 0.0376427 101.954C-0.0263573 90.8126 0.0106347 79.6626 0.0106347 68.5176ZM31.1936 68.5176C31.1616 89.1166 47.8486 105.905 68.4386 105.978C89.1056 106.051 105.935 89.3106 105.976 68.6516C106.008 48.0456 89.3256 31.2686 68.7226 31.1956C48.0556 31.1266 31.2296 47.8586 31.1936 68.5176ZM105.935 18.7196C99.1026 18.7556 93.4956 24.3796 93.5036 31.1956C93.5036 38.0156 99.1026 43.6346 105.935 43.6726C112.792 43.7086 118.521 37.9636 118.448 31.1236C118.383 24.2696 112.744 18.6836 105.935 18.7196Z" fill="black"/>
<path fill-rule="evenodd" clip-rule="evenodd" d="M68.6087 93.4815C54.7867 93.5055 43.6618 82.3735 43.6898 68.5425C43.7138 54.7605 54.7738 43.7045 68.5518 43.6885C82.3868 43.6725 93.5037 54.7925 93.4797 68.6315C93.4557 82.4045 82.3877 93.4655 68.6087 93.4815Z" fill="black"/>
</svg>
