<svg width="50" height="50" viewBox="0 0 50 50" fill="none" xmlns="http://www.w3.org/2000/svg">
<path fill-rule="evenodd" clip-rule="evenodd" d="M0 43.9453C0 31.3151 0 18.6849 0 6.05466C0.0320353 5.93212 0.0713627 5.81101 0.0948031 5.68691C0.528842 3.39066 1.78043 1.69396 3.88473 0.684981C4.5619 0.360331 5.32879 0.223075 6.05466 0C18.6849 0 31.3151 0 43.9453 0C44.0373 0.0286494 44.1275 0.0670659 44.2217 0.084516C47.0602 0.61466 48.8963 2.27021 49.753 5.0186C49.8584 5.35679 49.9187 5.70892 50 6.05466C50 18.6849 50 31.3151 50 43.9453C49.9674 44.0693 49.9288 44.1922 49.9032 44.3175C49.3439 47.0581 47.7418 48.8687 45.0739 49.7216C44.7057 49.8392 44.3219 49.9084 43.9453 50C31.3151 50 18.6849 50 6.05466 50C5.96286 49.971 5.87287 49.9321 5.77898 49.9146C2.93917 49.3836 1.10287 47.7258 0.243781 44.9778C0.138559 44.641 0.0800881 44.2899 0 43.9453ZM26.6324 22.1378C26.6324 21.6747 26.6373 21.2691 26.6313 20.8634C26.6191 20.0452 26.2813 19.6992 25.4739 19.6958C24.0422 19.6901 22.6105 19.6905 21.1788 19.6958C20.3594 19.6987 20.0209 20.0378 20.0206 20.8538C20.0188 27.0523 20.0188 33.2512 20.0206 39.4497C20.0209 40.2802 20.3735 40.6227 21.22 40.6243C22.554 40.6271 23.8881 40.6253 25.2222 40.6251C26.3256 40.625 26.61 40.3436 26.6102 39.2445C26.6113 36.1207 26.6062 32.9968 26.613 29.8733C26.6156 28.6981 26.8651 27.5784 27.5004 26.5744C28.2975 25.315 29.4836 24.9088 30.9095 25.0973C32.2143 25.2696 33.0787 26.0381 33.3771 27.2772C33.6214 28.2919 33.7312 29.3589 33.7468 30.405C33.7919 33.4141 33.756 36.4245 33.7585 39.4344C33.7592 40.2813 34.1002 40.6146 34.9472 40.6165C36.4115 40.6199 37.8757 40.6203 39.3398 40.6164C40.1708 40.6142 40.5239 40.2583 40.5237 39.4204C40.5221 35.9876 40.5621 32.5538 40.4914 29.1224C40.4621 27.7009 40.2951 26.2633 40.0088 24.8707C39.6132 22.9465 38.6723 21.3032 36.8826 20.3084C34.9678 19.2441 32.9001 19.2075 30.8076 19.5494C29.1279 19.8241 27.7735 20.6648 26.7797 22.062C26.7651 22.0824 26.73 22.0886 26.6324 22.1378ZM10.4461 30.1266C10.4461 33.2174 10.444 36.3083 10.4474 39.3993C10.4483 40.2292 10.8441 40.6211 11.6784 40.6237C13.0449 40.6283 14.4114 40.6273 15.7779 40.6241C16.6428 40.622 17.0451 40.2427 17.0459 39.3817C17.0514 33.2324 17.0512 27.0832 17.0461 20.9339C17.0454 20.0651 16.6603 19.6917 15.7849 19.6863C14.4347 19.6781 13.0844 19.6789 11.7343 19.6858C10.806 19.6906 10.447 20.062 10.4466 21C10.4452 24.0422 10.446 27.0844 10.4461 30.1266ZM17.9942 13.6612C18.0187 11.3375 16.1443 9.40847 13.8306 9.37591C11.4549 9.34257 9.50444 11.2291 9.47996 13.5841C9.45548 15.9319 11.343 17.8654 13.6793 17.8862C16.0744 17.9074 17.969 16.052 17.9942 13.6612Z" fill="black"/>
</svg>
