<svg width="328" height="328" viewBox="0 0 328 328" fill="none" xmlns="http://www.w3.org/2000/svg">
<path fill-rule="evenodd" clip-rule="evenodd" d="M173.444 327.688C167.044 327.688 160.644 327.688 154.243 327.688C153.42 327.508 152.604 327.218 151.772 327.164C131.664 325.842 112.382 321.037 94.34 312.153C44.062 287.398 13.333 247.451 2.58299 192.356C1.36699 186.122 0.844 179.752 0 173.444C0 167.044 0 160.644 0 154.243C0.186 153.324 0.478992 152.412 0.541992 151.484C1.89899 131.49 6.689 112.314 15.521 94.368C40.269 44.086 80.209 13.349 135.3 2.58701C141.545 1.36701 147.926 0.845 154.243 0C160.643 0 167.043 0 173.444 0C174.267 0.18 175.084 0.469987 175.916 0.523987C196.024 1.84599 215.307 6.651 233.348 15.534C283.625 40.29 314.356 80.236 325.106 135.331C326.323 141.565 326.845 147.935 327.689 154.243C327.689 160.643 327.689 167.043 327.689 173.444C327.503 174.364 327.21 175.275 327.147 176.204C325.79 196.198 321 215.374 312.168 233.32C287.421 283.602 247.48 314.339 192.389 325.101C186.143 326.321 179.761 326.843 173.444 327.688ZM182.335 163.493C182.335 177.035 182.335 190.576 182.335 204.119C182.335 204.332 182.343 204.546 182.347 204.759C182.471 211.454 185.262 216.75 191.022 220.172C203.444 227.551 218.193 218.924 218.255 204.158C218.369 177.287 218.295 150.416 218.269 123.544C218.267 122.064 218.153 120.544 217.816 119.107C215.665 109.902 207.253 104.03 197.765 105.032C188.93 105.965 182.429 113.37 182.366 122.865C182.274 136.408 182.341 149.951 182.335 163.493ZM109.809 163.542C109.875 163.542 109.941 163.542 110.007 163.543C110.007 177.936 109.924 192.329 110.055 206.72C110.097 211.31 112.329 215.151 115.737 218.128C121.5 223.162 128.147 224.221 135.102 221.192C142.41 218.01 145.712 211.919 145.835 204.115C145.956 196.439 145.864 188.761 145.864 181.083C145.864 162.103 145.907 143.122 145.846 124.142C145.813 113.79 138.868 105.969 129.38 104.983C120.11 104.02 109.564 110.859 109.763 123.557C109.971 136.881 109.809 150.213 109.809 163.542Z" fill="#1B3D2F"/>
</svg>
