<svg width="384" height="325" viewBox="0 0 384 325" fill="none" xmlns="http://www.w3.org/2000/svg">
<path fill-rule="evenodd" clip-rule="evenodd" d="M0 176.413C2.397 171.07 6.527 169.076 12.318 169.405C18.018 169.729 23.751 169.475 28.976 169.475C31.71 88.2593 69.2 32.8313 146.761 6.2743C204.468 -8.7777 255.834 3.28429 301.539 42.1173C289.922 55.7093 278.674 68.8703 267.581 81.8513C224.253 47.2983 178.498 41.2893 131.022 71.3713C93.709 95.0133 79.795 136.57 82.852 169.475C88.749 169.475 94.706 169.474 100.664 169.476C102.664 169.477 104.664 169.497 106.663 169.493C110.697 169.484 113.655 171.329 115.349 174.918C117.132 178.694 116.39 182.247 113.691 185.359C105.833 194.422 97.944 203.459 90.063 212.503C79.966 224.091 69.868 235.677 59.761 247.256C59.282 247.804 58.709 248.272 58.028 248.922C47.595 236.962 37.251 225.107 26.912 213.247C19.194 204.393 11.467 195.546 3.785 186.662C2.421 185.084 1.259 183.333 0.00299835 181.662C-1.64798e-06 179.912 0 178.162 0 176.413Z" fill="#1B3D2F"/>
<path fill-rule="evenodd" clip-rule="evenodd" d="M383.952 162.914C381.516 168.217 377.405 170.224 371.606 169.874C365.903 169.531 360.163 169.8 354.793 169.8C346.496 243.133 309.739 294.488 238.966 317.053C185.557 334.08 135.708 322.949 90.4912 289.049C102.088 275.475 113.328 262.319 124.535 249.2C165.683 277.011 208.048 280.701 250.744 254.396C281.621 235.373 297.711 206.356 301.504 169.799C295.136 169.799 289.177 169.8 283.218 169.799C281.345 169.798 279.469 169.762 277.595 169.8C273.41 169.887 270.328 168.057 268.577 164.308C266.808 160.521 267.593 157.001 270.305 153.886C277.769 145.309 285.239 136.736 292.711 128.165C303.628 115.645 314.551 103.13 325.782 90.2573C329.487 94.4673 333.08 98.5183 336.637 102.598C350.843 118.891 365.05 135.183 379.221 151.508C380.914 153.459 382.379 155.608 383.95 157.665C383.952 159.414 383.952 161.165 383.952 162.914Z" fill="#1B3D2F"/>
</svg>
