<svg width="384" height="384" viewBox="0 0 384 384" fill="none" xmlns="http://www.w3.org/2000/svg">
<path fill-rule="evenodd" clip-rule="evenodd" d="M0.00195312 84.741C0.00195312 79.992 0.00195312 75.242 0.00195312 70.493C0.599953 67.205 1.22196 63.923 1.78896 60.63C2.63096 55.745 4.82896 51.887 9.83096 50.31C14.991 48.683 18.968 50.722 22.586 54.377C35.154 67.073 47.785 79.7089 60.522 92.2349C61.763 93.4559 63.8789 94.307 65.6329 94.389C71.367 94.657 77.122 94.4899 82.869 94.4899C86.686 94.4899 90.5029 94.4899 94.4819 94.4899C94.4819 84.5739 94.605 75.212 94.378 65.859C94.334 64.007 93.4009 61.74 92.1069 60.423C79.3229 47.414 66.3789 34.561 53.4729 21.673C50.1769 18.381 48.9949 14.478 50.3569 10.022C51.6759 5.71096 54.7589 3.15195 59.1539 2.26295C63.1719 1.44995 67.212 0.750953 71.243 0.00195312C75.993 0.00195312 80.742 0.00195312 85.491 0.00195312C86.18 0.224953 86.855 0.574953 87.561 0.654953C136.544 6.16595 168.102 54.325 153.514 101.478C152.732 104.005 153.121 105.493 154.956 107.323C195.539 147.806 236.072 188.34 276.544 228.933C278.503 230.899 280.101 231.199 282.731 230.367C323.538 217.435 367.844 240.773 380.107 281.724C381.882 287.656 382.696 293.876 383.954 299.964C383.954 304.213 383.954 308.462 383.954 312.712C383.341 316.261 382.709 319.807 382.12 323.359C381.307 328.262 379.067 332.082 374.078 333.665C368.909 335.307 364.948 333.228 361.338 329.58C348.775 316.887 336.151 304.252 323.42 291.727C322.179 290.505 320.056 289.609 318.316 289.564C309.829 289.344 301.333 289.457 292.84 289.474C291.769 289.476 290.697 289.612 289.465 289.696C289.465 299.364 289.344 308.722 289.568 318.072C289.613 319.926 290.519 322.202 291.809 323.515C304.498 336.434 317.331 349.212 330.173 361.98C333.583 365.371 334.941 369.319 333.564 373.912C332.227 378.369 329.008 380.926 324.43 381.768C320.523 382.487 316.618 383.224 312.713 383.953C307.964 383.953 303.214 383.953 298.465 383.953C297.773 383.731 297.094 383.387 296.386 383.307C247.524 377.79 215.882 329.768 230.319 282.858C231.173 280.08 230.8 278.423 228.726 276.356C188.56 236.33 148.455 196.243 108.45 156.057C105.824 153.42 103.72 152.794 100.066 153.885C59.1679 166.098 15.946 142.721 3.71295 101.819C2.04795 96.255 1.21795 90.441 0.00195312 84.741Z" fill="#1B3D2F"/>
<path fill-rule="evenodd" clip-rule="evenodd" d="M0.0019989 321.712C1.883 315.542 3.067 309.035 5.844 303.3C8.514 297.783 12.216 292.454 16.527 288.093C47.878 256.37 79.497 224.912 111.034 193.374C111.384 193.024 111.777 192.718 111.787 192.708C138.226 219.146 164.601 245.518 191.206 272.12C190.876 272.483 190.105 273.409 189.256 274.259C158.786 304.744 128.271 335.183 97.857 365.723C88.293 375.327 77.17 381.657 63.606 383.393C63.136 383.453 62.697 383.762 62.244 383.955C58.244 383.955 54.245 383.955 50.245 383.955C49.297 383.711 48.361 383.395 47.399 383.235C39.55 381.923 32.252 379.234 24.513 374.067C26.003 373.096 27.322 372.524 28.269 371.579C55.51 344.401 82.718 317.188 109.914 289.966C111.143 288.735 112.414 287.476 113.341 286.023C118.041 278.657 113.043 269.127 104.335 268.813C100.298 268.667 97.284 270.692 94.514 273.469C67.164 300.893 39.759 328.26 12.405 355.679C11.455 356.631 10.877 357.953 9.764 359.656C8.039 356.578 6.7 354.843 6.035 352.882C3.889 346.537 1.993 340.109 0 333.712C0.002 329.711 0.0019989 325.711 0.0019989 321.712Z" fill="#1B3D2F"/>
<path fill-rule="evenodd" clip-rule="evenodd" d="M383.954 29.998C373.454 50.937 362.828 71.815 352.537 92.856C349.737 98.581 345.9 101.668 339.499 102.462C324.399 104.333 309.343 106.569 294.302 108.88C292.15 109.211 289.742 110.325 288.204 111.84C272.99 126.824 257.934 141.971 242.83 157.067C241.872 158.025 240.87 158.941 240.089 159.687C234.765 154.361 229.6 149.194 224.28 143.875C225.026 143.093 225.945 142.093 226.903 141.134C241.999 126.029 257.139 110.967 272.136 95.765C273.582 94.299 274.725 92.055 275.037 90.023C277.444 74.363 279.709 58.679 281.798 42.975C282.476 37.886 284.945 34.558 289.461 32.308C310.983 21.587 332.462 10.777 353.957 0C355.706 0 357.457 0 359.206 0C361.376 1.41 363.789 2.557 365.666 4.286C369.787 8.082 373.776 12.047 377.548 16.19C379.936 18.812 381.835 21.878 383.953 24.747C383.954 26.498 383.954 28.249 383.954 29.998Z" fill="#1B3D2F"/>
</svg>
